<?xml version="1.0" encoding="UTF-8"?>
<svg xmlns="http://www.w3.org/2000/svg" width="64" height="64" viewBox="0 0 64 64" fill="none">
  <path d="M32 64C49.6731 64 64 49.6731 64 32C64 14.3269 49.6731 0 32 0C14.3269 0 0 14.3269 0 32C0 49.6731 14.3269 64 32 64Z" fill="#F6F3EF"></path>
  <path d="M23.7585 44.7879V24.1032C23.7585 22.2943 24.1383 21.0132 24.8851 20.2987C25.6318 19.5842 27.0062 19.2124 28.9503 19.2124H40.2413V22.7819H31.39C30.1363 22.7819 29.2609 23.0394 28.7169 23.5705C28.173 24.1016 27.8994 24.9529 27.8994 26.1615V30.4021H37.6664V32.6552C37.6664 33.0047 37.5275 33.34 37.2804 33.5872C37.0332 33.8344 36.6979 33.9732 36.3484 33.9732H27.8994V44.7895L23.7585 44.7879Z" fill="#171B23"></path>
</svg>
